<?xml version="1.0" encoding="UTF-8"?>
<svg xmlns="http://www.w3.org/2000/svg" xmlns:xlink="http://www.w3.org/1999/xlink" width="256px" height="256px" viewBox="0 0 256 256" version="1.1">
<g id="surface1">
<path style=" stroke:none;fill-rule:evenodd;fill:rgb(0%,45.882353%,56.078434%);fill-opacity:1;" d="M 58.261719 43.09375 C 55.347656 43.039062 53.289062 43.410156 51.113281 43.886719 L 51.113281 44.28125 L 51.507812 44.28125 C 52.902344 47.136719 55.355469 48.976562 57.070312 51.433594 C 58.390625 54.214844 59.714844 56.992188 61.039062 59.769531 C 61.171875 59.636719 61.304688 59.503906 61.4375 59.375 C 63.898438 57.640625 65.019531 54.871094 65.011719 50.640625 C 64.023438 49.601562 63.875 48.300781 63.023438 47.0625 C 61.890625 45.414062 59.691406 44.480469 58.261719 43.09375 Z M 250.4375 246.792969 C 252.3125 248.167969 253.570312 250.300781 256 251.164062 L 256 250.765625 C 254.722656 249.144531 254.394531 246.90625 253.222656 245.207031 C 251.503906 243.488281 249.773438 241.765625 248.058594 240.042969 C 243.007812 233.34375 236.605469 227.460938 229.792969 222.574219 C 224.367188 218.671875 212.207031 213.410156 209.941406 207.089844 C 209.8125 206.957031 209.675781 206.824219 209.542969 206.6875 C 213.390625 206.257812 217.902344 204.863281 221.457031 203.910156 C 227.425781 202.308594 232.761719 202.726562 238.921875 201.132812 C 241.707031 200.332031 244.484375 199.539062 247.261719 198.75 L 247.261719 197.15625 C 244.148438 193.960938 241.925781 189.726562 238.53125 186.832031 C 229.636719 179.265625 219.933594 171.699219 209.9375 165.394531 C 204.402344 161.894531 197.546875 159.621094 191.671875 156.65625 C 189.699219 155.660156 186.230469 155.140625 184.921875 153.480469 C 181.84375 149.542969 180.160156 144.558594 177.777344 139.976562 C 172.796875 130.378906 167.898438 119.898438 163.480469 109.796875 C 160.472656 102.914062 158.503906 96.125 154.75 89.945312 C 136.71875 60.300781 117.308594 42.410156 87.246094 24.820312 C 80.84375 21.082031 73.144531 19.605469 65.011719 17.675781 C 60.644531 17.414062 56.273438 17.144531 51.90625 16.882812 C 49.242188 15.769531 46.46875 12.507812 43.964844 10.925781 C 34.003906 4.632812 8.457031 -9.050781 1.082031 8.941406 C -3.574219 20.296875 8.042969 31.378906 12.199219 37.136719 C 15.117188 41.171875 18.847656 45.699219 20.9375 50.238281 C 22.308594 53.21875 22.539062 56.214844 23.722656 59.371094 C 26.605469 67.148438 29.113281 75.609375 32.847656 82.800781 C 34.738281 86.433594 36.820312 90.269531 39.203125 93.519531 C 40.667969 95.515625 43.171875 96.394531 43.5625 99.476562 C 41.117188 102.90625 40.976562 108.230469 39.601562 112.578125 C 33.394531 132.148438 35.734375 156.464844 44.765625 170.949219 C 47.53125 175.394531 54.054688 184.933594 63.023438 181.273438 C 70.867188 178.078125 69.117188 168.171875 71.363281 159.433594 C 71.867188 157.449219 71.558594 155.992188 72.550781 154.667969 L 72.550781 155.066406 C 74.9375 159.828125 77.320312 164.59375 79.703125 169.359375 C 84.992188 177.878906 94.382812 186.785156 102.335938 192.789062 C 106.457031 195.902344 109.707031 201.289062 115.042969 203.113281 L 115.042969 202.710938 L 114.644531 202.710938 C 113.605469 201.105469 111.988281 200.433594 110.675781 199.140625 C 107.566406 196.09375 104.113281 192.304688 101.539062 188.816406 C 94.300781 178.992188 87.910156 168.242188 82.085938 157.050781 C 79.300781 151.707031 76.882812 145.8125 74.539062 140.375 C 73.632812 138.277344 73.644531 135.105469 71.757812 134.019531 C 69.1875 138.003906 65.40625 141.226562 63.417969 145.933594 C 60.242188 153.453125 59.832031 162.625 58.65625 172.136719 C 57.960938 172.390625 58.269531 172.21875 57.859375 172.535156 C 52.324219 171.203125 50.382812 165.507812 48.332031 160.625 C 43.132812 148.273438 42.167969 128.386719 46.742188 114.167969 C 47.925781 110.488281 53.28125 98.902344 51.105469 95.503906 C 50.074219 92.113281 46.667969 90.152344 44.761719 87.5625 C 42.390625 84.359375 40.035156 80.144531 38.398438 76.441406 C 34.148438 66.8125 32.164062 56.003906 27.683594 46.265625 C 25.542969 41.613281 21.921875 36.902344 18.945312 32.765625 C 15.65625 28.183594 11.964844 24.808594 9.417969 19.261719 C 8.507812 17.292969 7.273438 14.144531 8.621094 12.117188 C 9.046875 10.75 9.652344 10.179688 11.007812 9.734375 C 13.3125 7.957031 19.722656 10.324219 22.121094 11.324219 C 28.484375 13.964844 33.804688 16.484375 39.199219 20.058594 C 41.785156 21.773438 44.40625 25.097656 47.53125 26.015625 L 51.105469 26.015625 C 56.699219 27.296875 62.964844 26.414062 68.179688 28 C 77.414062 30.804688 85.683594 35.171875 93.195312 39.914062 C 116.082031 54.363281 134.792969 74.9375 147.59375 99.476562 C 149.65625 103.425781 150.546875 107.195312 152.359375 111.390625 C 156.015625 119.839844 160.628906 128.535156 164.269531 136.800781 C 167.902344 145.042969 171.445312 153.363281 176.578125 160.226562 C 179.277344 163.832031 189.707031 165.769531 194.449219 167.773438 C 197.773438 169.175781 203.214844 170.640625 206.359375 172.535156 C 212.375 176.160156 218.195312 180.476562 223.832031 184.449219 C 226.648438 186.4375 235.3125 190.789062 235.738281 194.371094 C 221.777344 194.003906 211.109375 195.300781 201.992188 199.140625 C 199.398438 200.230469 195.269531 200.261719 194.84375 203.507812 C 196.265625 205 196.492188 207.234375 197.625 209.066406 C 199.796875 212.59375 203.472656 217.3125 206.757812 219.789062 C 210.339844 222.496094 214.035156 225.390625 217.871094 227.730469 C 224.707031 231.902344 232.339844 234.28125 238.917969 238.453125 C 242.808594 240.917969 246.65625 244.015625 250.4375 246.792969 Z M 250.4375 246.792969 "/>
</g>
</svg>
