<?xml version="1.0" encoding="utf-8"?>
<!-- Generator: Adobe Illustrator 16.0.0, SVG Export Plug-In . SVG Version: 6.00 Build 0)  -->
<!DOCTYPE svg PUBLIC "-//W3C//DTD SVG 1.1//EN" "http://www.w3.org/Graphics/SVG/1.1/DTD/svg11.dtd">
<svg version="1.1" id="Layer_1" xmlns="http://www.w3.org/2000/svg" xmlns:xlink="http://www.w3.org/1999/xlink" x="0px" y="0px"
	 width="1600px" height="450px" viewBox="0 0 1600 450" enable-background="new 0 0 1600 450" xml:space="preserve">
<rect width="1600" height="450"/>
<path fill="#FFFFFF" d="M508.693,152.076h32.454l14.47,104.401h0.441l14.454-104.408h32.462v145.849h-21.516V187.5h-0.375
	l-16.559,110.423H545.5L528.957,187.5h-0.403v110.423h-19.86V152.076z M637.506,152.076h30.783l23.578,145.847h-22.742
	l-4.123-28.967v0.434h-25.854l-4.121,28.533H613.92L637.506,152.076z M662.324,249.587l-10.146-72.088h-0.403l-9.944,72.088H662.324
	z M702.82,152.076h34.734c11.327,0,19.801,3.055,25.451,9.166c5.65,6.111,8.473,15.075,8.473,26.892v73.762
	c0,11.789-2.823,20.752-8.473,26.862c-5.65,6.111-14.124,9.165-25.451,9.165h-34.719L702.82,152.076z M737.151,277.084
	c3.717,0,6.572-1.094,8.589-3.314c1.988-2.22,2.998-5.851,2.998-10.837v-75.836c0-5.016-1.01-8.617-2.998-10.837
	c-2.017-2.22-4.872-3.344-8.589-3.344h-11.588v104.169H737.151z M786.785,152.076h28.507l22.137,87.307h0.403v-87.307h20.264
	v145.847h-23.348L807.45,191.448h-0.402v106.475h-20.263V152.076z M875.043,152.076h62.029v20.839h-39.286v38.538h31.244v20.839
	h-31.244v44.792h39.286v20.839h-62.029V152.076z M955.059,290.517c-5.648-6.313-8.475-15.363-8.475-27.18v-8.332h21.504v10.003
	c0,9.453,3.919,14.181,11.788,14.181c3.861,0,6.803-1.152,8.791-3.458c1.99-2.277,2.997-5.995,2.997-11.127
	c0-6.11-1.382-11.501-4.149-16.17c-2.738-4.648-7.842-10.232-15.276-16.775c-9.397-8.331-15.934-15.854-19.658-22.598
	c-3.719-6.746-5.563-14.326-5.563-22.799c0-11.53,2.882-20.465,8.675-26.778c5.794-6.311,14.184-9.483,25.224-9.483
	c10.894,0,19.109,3.172,24.7,9.483c5.594,6.313,8.389,15.393,8.389,27.182v6.053h-21.502v-7.495c0-5.023-0.981-8.647-2.912-10.953
	c-1.931-2.278-4.756-3.43-8.476-3.43c-7.579,0-11.355,4.648-11.355,13.943c0,5.283,1.413,10.21,4.236,14.794
	c2.827,4.576,7.956,10.146,15.393,16.688c9.511,8.331,16.056,15.881,19.629,22.685c3.603,6.831,5.391,14.814,5.391,23.981
	c0,11.934-2.94,21.105-8.792,27.498c-5.851,6.37-14.354,9.569-25.537,9.569c-11.011,0-19.369-3.143-25.012-9.483H955.059z
	 M1031.988,290.517c-5.648-6.313-8.473-15.363-8.473-27.18v-8.332h21.502v10.003c0,9.453,3.914,14.181,11.761,14.181
	c3.863,0,6.802-1.152,8.791-3.458c2.018-2.277,3.026-5.995,3.026-11.127c0-6.11-1.383-11.501-4.149-16.17
	c-2.768-4.648-7.87-10.232-15.307-16.775c-9.368-8.331-15.909-15.854-19.629-22.598c-3.72-6.746-5.593-14.326-5.593-22.799
	c0-11.53,2.911-20.465,8.677-26.778c5.794-6.311,14.211-9.483,25.22-9.483c10.896,0,19.14,3.172,24.704,9.483
	c5.59,6.313,8.387,15.393,8.387,27.182v6.053h-21.503v-7.495c0-5.023-0.951-8.647-2.882-10.953c-1.931-2.278-4.785-3.43-8.503-3.43
	c-7.582,0-11.355,4.648-11.355,13.943c0,5.283,1.411,10.21,4.236,14.794c2.823,4.576,7.954,10.146,15.393,16.688
	c9.512,8.331,16.054,15.881,19.657,22.685c3.574,6.831,5.361,14.814,5.361,23.981c0,11.934-2.911,21.105-8.791,27.498
	c-5.852,6.37-14.354,9.569-25.539,9.569C1045.97,300,1037.639,296.857,1031.988,290.517z"/>
</svg>
