<?xml version="1.0" encoding="UTF-8"?>
<svg xmlns="http://www.w3.org/2000/svg" xmlns:xlink="http://www.w3.org/1999/xlink" width="87px" height="20px" viewBox="0 0 86 20" version="1.1">
<g id="surface1">
<path style=" stroke:none;fill-rule:nonzero;fill:rgb(100%,100%,100%);fill-opacity:1;" d="M 14.441406 13.558594 C 14.441406 15.382812 13.644531 16.878906 12.054688 18.035156 C 10.46875 19.195312 8.652344 19.773438 6.621094 19.773438 C 4.585938 19.773438 2.972656 19.339844 1.785156 18.46875 C 0.59375 17.597656 0 16.832031 0 16.164062 C 0 15.761719 0.5 15.101562 1.503906 14.1875 C 2.507812 13.273438 3.351562 12.71875 4.039062 12.515625 C 5.472656 13.585938 6.648438 15.28125 7.5625 17.597656 C 8.625 17.515625 9.152344 17.007812 9.152344 16.078125 C 9.152344 14.746094 7.992188 12.859375 5.671875 10.410156 C 3.351562 7.960938 2.191406 6.011719 2.191406 4.5625 C 2.191406 3.117188 2.835938 1.992188 4.125 1.191406 C 5.417969 0.398438 6.96875 0 8.789062 0 C 10.609375 0 11.976562 0.328125 12.894531 0.980469 C 13.808594 1.632812 14.269531 2.515625 14.269531 3.628906 C 14.269531 4.746094 13.394531 6.285156 11.648438 8.257812 C 11.847656 8.457031 12.105469 8.730469 12.421875 9.058594 C 12.734375 9.394531 13.152344 10.023438 13.667969 10.953125 C 14.183594 11.878906 14.441406 12.75 14.441406 13.558594 Z M 12.121094 3.652344 C 12.121094 2.636719 11.429688 2.128906 10.058594 2.128906 C 9.398438 2.128906 8.851562 2.269531 8.421875 2.542969 C 7.992188 2.820312 7.78125 3.128906 7.78125 3.476562 C 7.78125 4.117188 8.40625 5.011719 9.671875 6.167969 L 10.316406 6.738281 C 11.515625 5.695312 12.121094 4.667969 12.121094 3.652344 Z M 16.761719 15.96875 C 16.761719 14.742188 17.136719 12.625 17.878906 9.628906 C 18.625 6.625 18.996094 4.785156 18.996094 4.109375 C 18.996094 3.429688 18.484375 2.519531 17.449219 1.390625 L 17.492188 0.828125 C 19.441406 0.421875 22.003906 0.214844 25.1875 0.214844 C 25.328125 0.59375 25.402344 1.273438 25.402344 2.257812 C 25.402344 3.246094 25 5.34375 24.195312 8.5625 C 23.394531 11.777344 22.992188 13.773438 22.992188 14.558594 C 22.992188 15.339844 23.28125 15.734375 23.855469 15.734375 C 24.683594 15.734375 25.644531 15.425781 26.734375 14.820312 C 26.847656 14.121094 27.132812 12.792969 27.589844 10.824219 C 28.625 6.1875 29.140625 2.871094 29.140625 0.867188 C 30.140625 0.460938 31.945312 0.261719 34.554688 0.261719 L 35.371094 0.261719 C 35.371094 1.621094 34.96875 4.28125 34.167969 8.234375 C 33.363281 12.191406 32.964844 14.507812 32.964844 15.1875 C 32.964844 15.867188 33.105469 16.207031 33.394531 16.207031 C 33.5625 16.207031 34.382812 15.863281 35.84375 15.164062 L 36.660156 16.554688 C 34.109375 18.703125 31.875 19.773438 29.953125 19.773438 C 29.039062 19.773438 28.257812 19.511719 27.617188 18.992188 C 26.96875 18.46875 26.601562 17.789062 26.519531 16.945312 C 24.195312 18.859375 22.089844 19.816406 20.199219 19.816406 C 19.195312 19.816406 18.371094 19.484375 17.726562 18.816406 C 17.085938 18.148438 16.761719 17.203125 16.761719 15.96875 Z M 39.023438 19.382812 L 38.207031 19.382812 C 38.207031 18.019531 38.613281 15.410156 39.433594 11.558594 C 40.25 7.707031 40.65625 5.515625 40.65625 4.996094 C 40.65625 4.042969 40.257812 3.027344 39.453125 1.957031 L 39.066406 1.433594 L 39.113281 0.867188 C 40.65625 0.4375 43.136719 0.214844 46.546875 0.214844 C 46.949219 0.765625 47.148438 1.664062 47.148438 2.910156 C 49.726562 0.96875 51.777344 0 53.292969 0 C 55.210938 0 56.34375 1 56.691406 3 C 57.464844 2.363281 58.472656 1.699219 59.71875 1.023438 C 60.964844 0.34375 62.082031 0 63.070312 0 C 64.058594 0 64.882812 0.328125 65.542969 0.980469 C 66.199219 1.632812 66.53125 2.535156 66.53125 3.691406 C 66.53125 4.851562 66.214844 6.765625 65.585938 9.433594 C 64.953125 12.09375 64.640625 13.886719 64.640625 14.796875 C 64.640625 15.710938 64.765625 16.164062 65.027344 16.164062 C 65.199219 16.164062 65.785156 15.890625 66.789062 15.339844 L 67.261719 15.082031 L 68.035156 16.597656 C 67.289062 17.351562 66.277344 18.070312 65.003906 18.753906 C 63.730469 19.433594 62.605469 19.773438 61.632812 19.773438 C 59.480469 19.773438 58.410156 18.539062 58.410156 16.078125 C 58.410156 15.179688 58.714844 13.378906 59.332031 10.671875 C 59.949219 7.960938 60.253906 6.191406 60.253906 5.367188 C 60.253906 4.539062 60.011719 4.128906 59.523438 4.128906 C 58.695312 4.128906 57.75 4.445312 56.691406 5.085938 C 56.628906 5.664062 56.238281 7.636719 55.507812 10.996094 C 54.777344 14.355469 54.410156 16.960938 54.410156 18.816406 C 53.578125 19.195312 51.628906 19.382812 48.566406 19.382812 C 48.507812 19.066406 48.480469 18.296875 48.480469 17.078125 C 48.480469 15.863281 48.816406 13.792969 49.488281 10.867188 C 50.160156 7.9375 50.5 6.085938 50.5 5.304688 C 50.5 4.519531 50.226562 4.128906 49.683594 4.128906 C 48.824219 4.128906 47.878906 4.476562 46.847656 5.171875 C 46.789062 5.433594 46.503906 6.707031 45.988281 8.996094 C 44.957031 13.574219 44.4375 16.832031 44.4375 18.773438 C 43.4375 19.179688 41.632812 19.382812 39.023438 19.382812 Z M 70.269531 19.382812 L 69.96875 19.382812 C 69.910156 19.148438 69.882812 18.621094 69.882812 17.792969 C 69.882812 16.972656 70.269531 14.746094 71.042969 11.125 C 71.816406 7.503906 72.203125 5.433594 72.203125 4.914062 C 72.203125 4.015625 71.800781 3.027344 71 1.957031 L 70.617188 1.4375 L 70.65625 0.867188 C 72.203125 0.4375 74.683594 0.214844 78.09375 0.214844 C 78.433594 0.96875 78.605469 2.027344 78.605469 3.390625 C 78.921875 2.871094 79.582031 2.171875 80.582031 1.304688 C 81.589844 0.4375 82.621094 0 83.679688 0 C 85.226562 0 86 1.359375 86 4.082031 C 85.855469 4.261719 85.660156 4.484375 85.421875 4.757812 C 85.175781 5.03125 84.6875 5.417969 83.960938 5.910156 C 83.230469 6.402344 82.519531 6.707031 81.832031 6.820312 C 81.800781 6.820312 81.558594 6.429688 81.101562 5.648438 C 80.644531 4.867188 80.296875 4.476562 80.070312 4.476562 C 79.351562 4.734375 78.722656 5.171875 78.179688 5.777344 C 76.859375 11.777344 76.203125 15.660156 76.203125 17.429688 C 76.203125 18.066406 76.214844 18.511719 76.242188 18.773438 C 75.242188 19.179688 73.25 19.382812 70.269531 19.382812 Z M -32.707031 29.449219 C -32.640625 29.460938 -32.574219 29.476562 -32.515625 29.488281 C -32.492188 29.496094 -32.472656 29.5 -32.453125 29.507812 C -32.417969 29.515625 -32.378906 29.523438 -32.34375 29.535156 L -32.304688 29.546875 C -32.257812 29.5625 -32.203125 29.578125 -32.148438 29.59375 C -32.128906 29.601562 -32.105469 29.613281 -32.082031 29.617188 C -32.046875 29.628906 -32.011719 29.640625 -31.972656 29.65625 L -31.957031 29.664062 C -31.933594 29.671875 -31.90625 29.683594 -31.878906 29.695312 L -31.871094 29.699219 L -31.851562 29.707031 C -31.832031 29.71875 -31.8125 29.726562 -31.792969 29.734375 C -31.722656 29.761719 -31.65625 29.792969 -31.589844 29.824219 L -31.566406 29.835938 C -31.539062 29.851562 -31.511719 29.863281 -31.484375 29.875 C -31.398438 29.921875 -31.324219 29.96875 -31.242188 30.019531 C -31.210938 30.039062 -31.179688 30.058594 -31.148438 30.074219 C -31.058594 30.136719 -30.972656 30.199219 -30.886719 30.265625 C -30.871094 30.277344 -30.851562 30.285156 -30.835938 30.296875 L -30.789062 30.335938 L -30.773438 30.355469 L -30.75 30.371094 C -30.679688 30.433594 -30.609375 30.5 -30.539062 30.566406 L -30.523438 30.578125 C -30.5 30.601562 -30.480469 30.621094 -30.460938 30.644531 C -30.445312 30.660156 -30.429688 30.679688 -30.414062 30.695312 C -30.363281 30.683594 -30.316406 30.683594 -30.265625 30.671875 L -30.132812 30.65625 C -30.011719 30.640625 -29.890625 30.621094 -29.773438 30.609375 C -29.738281 30.605469 -29.703125 30.605469 -29.667969 30.601562 C -29.519531 30.585938 -29.375 30.578125 -29.230469 30.566406 C -29.191406 30.566406 -29.148438 30.566406 -29.109375 30.566406 C -29.007812 30.558594 -28.90625 30.554688 -28.804688 30.554688 C -28.78125 30.554688 -28.757812 30.554688 -28.734375 30.554688 C -28.695312 30.554688 -28.652344 30.554688 -28.613281 30.554688 C -28.5 30.558594 -28.382812 30.5625 -28.265625 30.566406 L -28.101562 30.578125 C -28.042969 30.582031 -27.988281 30.589844 -27.929688 30.59375 C -27.875 30.601562 -27.8125 30.605469 -27.757812 30.609375 C -27.703125 30.617188 -27.652344 30.625 -27.601562 30.632812 C -27.566406 30.636719 -27.53125 30.644531 -27.496094 30.644531 L -27.808594 30.398438 C -28.230469 30.085938 -28.25 30.074219 -29.121094 29.550781 C -29.539062 29.316406 -29.539062 29.316406 -30.441406 28.90625 C -30.851562 28.734375 -30.867188 28.730469 -31.785156 28.433594 C -32.265625 28.304688 -32.292969 28.296875 -33.027344 28.152344 C -33.019531 28.175781 -33.015625 28.207031 -33.003906 28.234375 C -32.964844 28.375 -32.929688 28.515625 -32.902344 28.660156 C -32.890625 28.703125 -32.882812 28.742188 -32.875 28.792969 L -32.839844 28.976562 L -32.816406 29.109375 C -32.804688 29.1875 -32.792969 29.269531 -32.78125 29.351562 C -32.777344 29.382812 -32.773438 29.40625 -32.769531 29.433594 Z M -35.941406 30.230469 L -35.898438 30.199219 C -35.875 30.179688 -35.851562 30.164062 -35.832031 30.140625 C -35.816406 30.132812 -35.804688 30.117188 -35.789062 30.105469 C -35.761719 30.082031 -35.730469 30.058594 -35.703125 30.03125 L -35.683594 30.019531 L -35.65625 30 L -35.652344 29.996094 C -35.628906 29.980469 -35.601562 29.964844 -35.578125 29.945312 L -35.554688 29.929688 C -35.484375 29.882812 -35.410156 29.835938 -35.332031 29.796875 L -35.253906 29.75 L -35.242188 29.746094 L -35.238281 29.746094 L -35.238281 29.742188 C -35.113281 29.679688 -34.996094 29.628906 -34.886719 29.589844 C -34.835938 29.570312 -34.785156 29.550781 -34.730469 29.539062 L -34.640625 29.511719 C -34.597656 29.5 -34.558594 29.484375 -34.507812 29.476562 C -34.480469 29.46875 -34.449219 29.460938 -34.417969 29.457031 L -34.394531 29.449219 C -34.304688 29.433594 -34.210938 29.417969 -34.113281 29.402344 L -34.089844 29.398438 L -34.082031 29.398438 C -34.046875 29.394531 -34.015625 29.390625 -33.984375 29.386719 C -33.921875 29.382812 -33.863281 29.375 -33.808594 29.371094 L -33.804688 29.371094 C -33.824219 29.230469 -33.847656 29.089844 -33.875 28.953125 L -33.886719 28.914062 C -33.898438 28.847656 -33.910156 28.78125 -33.925781 28.71875 L -33.953125 28.601562 C -33.96875 28.546875 -33.984375 28.496094 -34 28.445312 C -34 28.441406 -34 28.433594 -34.003906 28.429688 C -34.011719 28.398438 -34.023438 28.367188 -34.03125 28.339844 C -34.035156 28.328125 -34.035156 28.324219 -34.039062 28.3125 C -34.046875 28.285156 -34.058594 28.257812 -34.070312 28.226562 L -34.097656 28.160156 C -34.109375 28.132812 -34.117188 28.109375 -34.132812 28.085938 L -34.152344 28.046875 C -34.152344 28.039062 -34.15625 28.039062 -34.160156 28.035156 C -34.164062 28.027344 -34.167969 28.019531 -34.171875 28.015625 L -34.179688 28 L -34.585938 27.976562 C -35.066406 27.949219 -35.085938 27.949219 -36.101562 27.992188 C -36.648438 28.03125 -36.648438 28.03125 -37.714844 28.222656 C -38.328125 28.351562 -38.328125 28.351562 -39.4375 28.71875 C -40.136719 28.976562 -40.183594 29.003906 -41.234375 29.539062 C -41.449219 29.667969 -41.613281 29.757812 -41.753906 29.847656 C -41.726562 29.839844 -41.699219 29.835938 -41.667969 29.828125 C -41.582031 29.8125 -41.5 29.796875 -41.414062 29.785156 C -41.34375 29.773438 -41.277344 29.761719 -41.210938 29.753906 C -41.117188 29.742188 -41.027344 29.730469 -40.929688 29.71875 C -40.867188 29.710938 -40.804688 29.703125 -40.742188 29.695312 C -40.632812 29.6875 -40.527344 29.679688 -40.417969 29.671875 C -40.367188 29.667969 -40.308594 29.667969 -40.257812 29.664062 C -39.933594 29.648438 -39.609375 29.648438 -39.28125 29.664062 C -39.226562 29.664062 -39.175781 29.667969 -39.121094 29.671875 C -39.011719 29.679688 -38.90625 29.683594 -38.796875 29.695312 C -38.730469 29.695312 -38.664062 29.707031 -38.601562 29.710938 C -38.503906 29.71875 -38.402344 29.730469 -38.304688 29.742188 C -38.234375 29.75 -38.164062 29.757812 -38.09375 29.773438 C -37.996094 29.785156 -37.902344 29.796875 -37.804688 29.8125 C -37.640625 29.835938 -37.46875 29.867188 -37.304688 29.902344 C -37.058594 29.953125 -36.8125 30.007812 -36.570312 30.066406 C -36.398438 30.109375 -36.226562 30.152344 -36.054688 30.203125 C -36.019531 30.214844 -35.980469 30.222656 -35.949219 30.234375 Z M -36.386719 32.878906 L -36.386719 32.875 L -36.390625 32.871094 L -36.394531 32.859375 L -36.402344 32.84375 C -36.433594 32.769531 -36.460938 32.703125 -36.488281 32.625 L -36.488281 32.617188 L -36.492188 32.617188 L -36.511719 32.558594 C -36.5625 32.398438 -36.597656 32.230469 -36.609375 32.058594 L -36.609375 32.050781 L -36.613281 31.992188 L -36.613281 31.988281 C -36.621094 31.941406 -36.621094 31.894531 -36.621094 31.84375 C -36.621094 31.820312 -36.621094 31.796875 -36.621094 31.773438 C -36.617188 31.761719 -36.621094 31.75 -36.621094 31.738281 L -36.613281 31.710938 C -36.609375 31.632812 -36.601562 31.558594 -36.59375 31.488281 L -36.582031 31.425781 C -36.5625 31.335938 -36.539062 31.246094 -36.511719 31.160156 C -36.507812 31.152344 -36.507812 31.148438 -36.503906 31.140625 C -36.625 31.109375 -36.75 31.074219 -36.871094 31.046875 C -36.890625 31.039062 -36.902344 31.035156 -36.917969 31.035156 C -37.070312 30.996094 -37.21875 30.960938 -37.375 30.929688 C -37.417969 30.917969 -37.460938 30.914062 -37.503906 30.90625 C -37.609375 30.882812 -37.71875 30.867188 -37.828125 30.84375 C -37.878906 30.839844 -37.9375 30.828125 -37.992188 30.820312 C -38.085938 30.804688 -38.179688 30.789062 -38.277344 30.777344 C -38.332031 30.773438 -38.390625 30.761719 -38.449219 30.757812 C -38.539062 30.746094 -38.636719 30.734375 -38.726562 30.726562 C -38.785156 30.722656 -38.839844 30.71875 -38.894531 30.710938 C -38.992188 30.707031 -39.089844 30.695312 -39.191406 30.695312 C -39.234375 30.691406 -39.285156 30.6875 -39.328125 30.683594 C -39.472656 30.679688 -39.617188 30.675781 -39.757812 30.675781 C -41.988281 30.675781 -43.835938 31.410156 -44.960938 32.742188 L -45.144531 32.980469 C -45.460938 33.433594 -45.757812 33.898438 -46.046875 34.371094 C -46.765625 35.726562 -46.945312 36.34375 -47.285156 37.554688 C -47.539062 38.703125 -47.558594 38.9375 -47.648438 40.148438 C -47.660156 41.269531 -47.632812 41.492188 -47.480469 42.671875 C -47.292969 43.679688 -47.234375 43.859375 -46.867188 44.980469 C -46.808594 45.132812 -46.757812 45.257812 -46.714844 45.371094 C -46.714844 45.367188 -46.710938 45.359375 -46.710938 45.347656 C -46.6875 45.179688 -46.664062 45.015625 -46.628906 44.847656 C -46.578125 44.570312 -46.515625 44.300781 -46.433594 44.03125 C -46.421875 43.988281 -46.410156 43.945312 -46.394531 43.898438 C -46.367188 43.8125 -46.339844 43.730469 -46.316406 43.640625 C -46.296875 43.589844 -46.277344 43.535156 -46.257812 43.484375 C -46.230469 43.40625 -46.203125 43.328125 -46.175781 43.25 C -46.152344 43.195312 -46.128906 43.140625 -46.109375 43.082031 C -46.078125 43.011719 -46.046875 42.933594 -46.015625 42.859375 C -45.992188 42.800781 -45.96875 42.742188 -45.941406 42.6875 C -45.90625 42.609375 -45.875 42.535156 -45.84375 42.460938 C -45.816406 42.402344 -45.785156 42.34375 -45.757812 42.285156 C -45.71875 42.210938 -45.683594 42.140625 -45.648438 42.0625 C -45.617188 42.003906 -45.589844 41.945312 -45.558594 41.882812 C -45.519531 41.8125 -45.480469 41.738281 -45.441406 41.664062 C -45.40625 41.605469 -45.371094 41.542969 -45.339844 41.488281 C -45.296875 41.414062 -45.257812 41.335938 -45.214844 41.265625 C -45.179688 41.203125 -45.144531 41.148438 -45.109375 41.085938 L -44.972656 40.867188 C -44.9375 40.804688 -44.898438 40.746094 -44.859375 40.683594 C -44.8125 40.613281 -44.765625 40.539062 -44.71875 40.464844 C -44.675781 40.410156 -44.636719 40.347656 -44.597656 40.289062 C -44.546875 40.214844 -44.5 40.140625 -44.449219 40.070312 L -44.320312 39.890625 C -44.226562 39.757812 -44.125 39.625 -44.027344 39.492188 C -43.925781 39.359375 -43.828125 39.226562 -43.726562 39.097656 C -43.617188 38.964844 -43.515625 38.835938 -43.40625 38.707031 C -43.347656 38.636719 -43.285156 38.5625 -43.226562 38.496094 L -43.074219 38.316406 C -43.015625 38.25 -42.953125 38.179688 -42.886719 38.105469 L -42.734375 37.9375 C -42.617188 37.804688 -42.496094 37.679688 -42.375 37.554688 C -42.1875 37.355469 -41.996094 37.164062 -41.800781 36.972656 L -41.632812 36.804688 C -41.5 36.683594 -41.375 36.558594 -41.238281 36.4375 C -41.167969 36.375 -41.09375 36.308594 -41.019531 36.238281 C -40.960938 36.1875 -40.902344 36.132812 -40.84375 36.078125 L -40.617188 35.878906 L -40.433594 35.722656 C -40.21875 35.539062 -39.996094 35.363281 -39.777344 35.1875 C -39.710938 35.136719 -39.648438 35.085938 -39.585938 35.035156 C -39.507812 34.976562 -39.421875 34.914062 -39.339844 34.851562 L -39.152344 34.707031 C -39.066406 34.640625 -38.984375 34.582031 -38.898438 34.523438 L -38.707031 34.382812 C -38.621094 34.320312 -38.535156 34.261719 -38.449219 34.199219 C -38.382812 34.15625 -38.320312 34.109375 -38.253906 34.070312 C -38.167969 34.007812 -38.078125 33.949219 -37.988281 33.886719 C -37.925781 33.847656 -37.863281 33.804688 -37.796875 33.761719 C -37.707031 33.703125 -37.609375 33.640625 -37.519531 33.585938 C -37.457031 33.546875 -37.394531 33.507812 -37.332031 33.46875 C -37.234375 33.40625 -37.132812 33.34375 -37.035156 33.289062 C -36.976562 33.25 -36.921875 33.214844 -36.859375 33.183594 C -36.753906 33.117188 -36.644531 33.054688 -36.535156 32.992188 C -36.484375 32.960938 -36.433594 32.9375 -36.382812 32.90625 Z M -36.386719 32.878906 "/>
</g>
</svg>
